# xmcd
#
# Track frame offsets: 
#        150
#        17897
#        37040
#        54502
#        70185
#        93605
#        113202
#        131197
#        146807
#        172162
#
# Disc length: 2429 seconds
#
# Revision: 3
# Processed by: cddbd v1.5.2PL0 Copyright (c) Steve Scherf et al.
# Submitted via: ExactAudioCopy v0.99pb4
#
DISCID=9a097b0a
DTITLE=Jimmie Vaughan - Out There
DYEAR=1998
DGENRE=Blues
TTITLE0=Like A King
TTITLE1=Lost In You
TTITLE2=Out There
TTITLE3=Can't Say No
TTITLE4=The Ironic Twist
TTITLE5=Positively Meant To Be
TTITLE6=Motor Head Baby
TTITLE7=Kinky Woman
TTITLE8=Astral Projection Blues
TTITLE9=Little Son, Big Sun
EXTD=YEAR: 1998
EXTT0=
EXTT1=
EXTT2=
EXTT3=
EXTT4=
EXTT5=
EXTT6=
EXTT7=
EXTT8=
EXTT9=
PLAYORDER=
